<svg xmlns="http://www.w3.org/2000/svg" version="1.1" xmlns:xlink="http://www.w3.org/1999/xlink" width="24" height="24"><svg viewBox="0 0 24 24" xmlns="http://www.w3.org/2000/svg"><g><path d="M0 0h24v24H0z" fill="none"></path><path d="M3.783 2.826L12 1l8.217 1.826a1 1 0 0 1 .783.976v9.987a6 6 0 0 1-2.672 4.992L12 23l-6.328-4.219A6 6 0 0 1 3 13.79V3.802a1 1 0 0 1 .783-.976zM12 11a2.5 2.5 0 1 0 0-5 2.5 2.5 0 0 0 0 5zm-4.473 5h8.946a4.5 4.5 0 0 0-8.946 0z"></path></g></svg><style>@media (prefers-color-scheme: light) { :root { filter: none; } }
@media (prefers-color-scheme: dark) { :root { filter: none; } }
</style></svg>